<svg xmlns="http://www.w3.org/2000/svg" xmlns:xlink="http://www.w3.org/1999/xlink" width="500" zoomAndPan="magnify" viewBox="0 0 375 63.749997" height="85" preserveAspectRatio="xMidYMid meet" version="1.0"><defs><g/><clipPath id="ac97c76ec2"><path d="M 113 12 L 151 12 L 151 63.5 L 113 63.5 Z M 113 12 " clip-rule="nonzero"/></clipPath></defs><g fill="#ffffff" fill-opacity="1"><g transform="translate(0.562092, 51.309925)"><g><path d="M 15.796875 -13.6875 L 15.796875 0 L 3.734375 0 L 3.734375 -48.78125 L 21.546875 -48.78125 C 29.066406 -48.78125 34.410156 -47.46875 37.578125 -44.84375 C 40.742188 -42.226562 42.328125 -37.832031 42.328125 -31.65625 C 42.328125 -25.539062 40.648438 -21.015625 37.296875 -18.078125 C 33.953125 -15.148438 28.78125 -13.6875 21.78125 -13.6875 Z M 30.109375 -31.65625 C 30.109375 -33.945312 29.484375 -35.554688 28.234375 -36.484375 C 26.992188 -37.421875 24.765625 -37.890625 21.546875 -37.890625 L 15.796875 -37.890625 L 15.796875 -24.265625 L 21.546875 -24.265625 C 24.816406 -24.265625 27.0625 -24.8125 28.28125 -25.90625 C 29.5 -27 30.109375 -28.914062 30.109375 -31.65625 Z M 30.109375 -31.65625 "/></g></g></g><g fill="#ffffff" fill-opacity="1"><g transform="translate(44.201557, 51.309925)"><g><path d="M 35.171875 -11.359375 L 35.171875 -2.09375 C 33.921875 -1.320312 31.816406 -0.648438 28.859375 -0.078125 C 25.898438 0.492188 22.789062 0.78125 19.53125 0.78125 C 13.300781 0.78125 8.8125 -0.785156 6.0625 -3.921875 C 3.3125 -7.066406 1.9375 -12.164062 1.9375 -19.21875 C 1.9375 -26.113281 3.390625 -31.164062 6.296875 -34.375 C 9.203125 -37.59375 13.796875 -39.203125 20.078125 -39.203125 C 26.191406 -39.203125 30.503906 -37.992188 33.015625 -35.578125 C 35.535156 -33.171875 36.796875 -28.910156 36.796875 -22.796875 C 36.796875 -21.140625 36.769531 -19.816406 36.71875 -18.828125 C 36.664062 -17.835938 36.5625 -16.695312 36.40625 -15.40625 L 13.6875 -15.40625 C 13.738281 -13.28125 14.304688 -11.800781 15.390625 -10.96875 C 16.484375 -10.132812 18.484375 -9.71875 21.390625 -9.71875 C 23.878906 -9.71875 26.421875 -9.882812 29.015625 -10.21875 C 31.609375 -10.5625 33.660156 -10.941406 35.171875 -11.359375 Z M 20.078125 -29.25 C 17.585938 -29.25 15.898438 -28.820312 15.015625 -27.96875 C 14.128906 -27.113281 13.6875 -25.441406 13.6875 -22.953125 L 26.21875 -22.953125 L 26.21875 -24.65625 C 26.164062 -26.476562 25.738281 -27.695312 24.9375 -28.3125 C 24.132812 -28.9375 22.515625 -29.25 20.078125 -29.25 Z M 20.078125 -29.25 "/></g></g></g><g fill="#ffffff" fill-opacity="1"><g transform="translate(83.018124, 51.309925)"><g><path d="M 15.015625 0 L 3.34375 0 L 3.34375 -38.4375 L 14.234375 -38.4375 L 14.625 -35.46875 L 14.78125 -35.46875 C 16.644531 -36.613281 18.550781 -37.484375 20.5 -38.078125 C 22.445312 -38.671875 24.273438 -38.96875 25.984375 -38.96875 L 26.609375 -38.96875 L 26.609375 -27.703125 C 26.140625 -27.796875 25.628906 -27.851562 25.078125 -27.875 C 24.535156 -27.90625 23.851562 -27.921875 23.03125 -27.921875 C 21.519531 -27.921875 20.085938 -27.832031 18.734375 -27.65625 C 17.390625 -27.476562 16.148438 -27.207031 15.015625 -26.84375 Z M 15.015625 0 "/></g></g></g><g clip-path="url(#ac97c76ec2)"><g fill="#ffffff" fill-opacity="1"><g transform="translate(110.633116, 51.309925)"><g><path d="M 15.015625 11.828125 L 3.34375 11.828125 L 3.34375 -38.4375 L 13.609375 -38.4375 L 14.234375 -34.859375 L 14.390625 -34.859375 C 15.796875 -36.304688 17.46875 -37.390625 19.40625 -38.109375 C 21.351562 -38.835938 23.570312 -39.203125 26.0625 -39.203125 C 31.144531 -39.203125 34.757812 -37.671875 36.90625 -34.609375 C 39.0625 -31.554688 40.140625 -26.425781 40.140625 -19.21875 C 40.140625 -12.21875 38.773438 -7.132812 36.046875 -3.96875 C 33.328125 -0.800781 28.910156 0.78125 22.796875 0.78125 C 21.285156 0.78125 19.867188 0.6875 18.546875 0.5 C 17.234375 0.320312 16.054688 0.078125 15.015625 -0.234375 Z M 28.46875 -19.21875 C 28.46875 -23.101562 28.050781 -25.65625 27.21875 -26.875 C 26.394531 -28.09375 24.609375 -28.703125 21.859375 -28.703125 C 20.515625 -28.703125 19.257812 -28.597656 18.09375 -28.390625 C 16.925781 -28.179688 15.898438 -27.875 15.015625 -27.46875 L 15.015625 -11.046875 C 15.796875 -10.679688 16.691406 -10.421875 17.703125 -10.265625 C 18.710938 -10.109375 19.863281 -10.03125 21.15625 -10.03125 C 24.320312 -10.03125 26.332031 -10.585938 27.1875 -11.703125 C 28.039062 -12.816406 28.46875 -15.320312 28.46875 -19.21875 Z M 28.46875 -19.21875 "/></g></g></g></g><g fill="#ffffff" fill-opacity="1"><g transform="translate(152.716805, 51.309925)"><g/></g></g><g fill="#ffffff" fill-opacity="1"><g transform="translate(164.229536, 51.309925)"><g><path d="M 12.84375 0 L 0 -48.78125 L 13.0625 -48.78125 L 18.203125 -24.65625 C 18.410156 -23.832031 18.628906 -22.71875 18.859375 -21.3125 C 19.097656 -19.914062 19.503906 -17.21875 20.078125 -13.21875 C 20.234375 -14.207031 20.53125 -16.101562 20.96875 -18.90625 C 21.40625 -21.707031 21.726562 -23.597656 21.9375 -24.578125 L 26.921875 -48.78125 L 39.515625 -48.78125 L 44.65625 -24.65625 C 44.863281 -23.832031 45.082031 -22.71875 45.3125 -21.3125 C 45.550781 -19.914062 45.953125 -17.21875 46.515625 -13.21875 C 46.671875 -14.207031 46.96875 -16.101562 47.40625 -18.90625 C 47.851562 -21.707031 48.179688 -23.597656 48.390625 -24.578125 L 53.375 -48.78125 L 66.046875 -48.78125 L 53.296875 0 L 39.359375 0 L 36.25 -14.78125 C 35.726562 -17.269531 35.207031 -19.890625 34.6875 -22.640625 C 34.175781 -25.390625 33.632812 -28.421875 33.0625 -31.734375 C 32.226562 -27.117188 31.578125 -23.644531 31.109375 -21.3125 C 30.648438 -18.976562 30.210938 -16.800781 29.796875 -14.78125 L 26.6875 0 Z M 12.84375 0 "/></g></g></g><g fill="#ffffff" fill-opacity="1"><g transform="translate(230.272149, 51.309925)"><g><path d="M 12.6875 0.78125 C 8.738281 0.78125 5.84375 -0.203125 4 -2.171875 C 2.164062 -4.148438 1.25 -7.265625 1.25 -11.515625 C 1.25 -15.867188 2.347656 -18.925781 4.546875 -20.6875 C 6.753906 -22.457031 10.554688 -23.34375 15.953125 -23.34375 C 17.191406 -23.34375 18.472656 -23.273438 19.796875 -23.140625 C 21.117188 -23.015625 22.273438 -22.847656 23.265625 -22.640625 L 23.265625 -25.4375 C 23.265625 -26.6875 22.734375 -27.609375 21.671875 -28.203125 C 20.609375 -28.796875 18.984375 -29.09375 16.796875 -29.09375 C 14.304688 -29.09375 12.085938 -29.023438 10.140625 -28.890625 C 8.203125 -28.765625 6.429688 -28.546875 4.828125 -28.234375 L 4.828125 -37.8125 C 6.742188 -38.28125 8.972656 -38.628906 11.515625 -38.859375 C 14.054688 -39.085938 17.007812 -39.203125 20.375 -39.203125 C 25.15625 -39.203125 28.773438 -38.140625 31.234375 -36.015625 C 33.703125 -33.890625 34.9375 -30.753906 34.9375 -26.609375 L 34.9375 0 L 24.046875 0 L 23.65625 -3.265625 L 23.421875 -3.265625 C 21.804688 -2.023438 20.039062 -1.039062 18.125 -0.3125 C 16.207031 0.414062 14.394531 0.78125 12.6875 0.78125 Z M 17.5 -15.640625 C 15.425781 -15.640625 14.023438 -15.414062 13.296875 -14.96875 C 12.578125 -14.53125 12.21875 -13.613281 12.21875 -12.21875 C 12.21875 -10.914062 12.515625 -10.019531 13.109375 -9.53125 C 13.703125 -9.039062 14.753906 -8.796875 16.265625 -8.796875 C 17.398438 -8.796875 18.585938 -8.945312 19.828125 -9.25 C 21.078125 -9.5625 22.222656 -9.953125 23.265625 -10.421875 L 23.265625 -15.171875 C 22.640625 -15.328125 21.859375 -15.441406 20.921875 -15.515625 C 19.992188 -15.597656 18.851562 -15.640625 17.5 -15.640625 Z M 17.5 -15.640625 "/></g></g></g><g fill="#ffffff" fill-opacity="1"><g transform="translate(268.388599, 51.309925)"><g><path d="M 5.828125 -28.703125 L 1.328125 -28.703125 L 1.328125 -38.4375 L 6.21875 -38.4375 L 7.703125 -47.375 L 17.5 -47.375 L 17.5 -38.4375 L 28.390625 -38.4375 L 28.390625 -28.703125 L 17.5 -28.703125 L 17.5 -13.765625 C 17.5 -12.316406 17.875 -11.34375 18.625 -10.84375 C 19.382812 -10.351562 20.878906 -10.109375 23.109375 -10.109375 C 23.878906 -10.109375 24.835938 -10.171875 25.984375 -10.296875 C 27.128906 -10.429688 28.085938 -10.578125 28.859375 -10.734375 L 28.859375 -0.78125 C 28.035156 -0.414062 26.753906 -0.0664062 25.015625 0.265625 C 23.273438 0.609375 21.726562 0.78125 20.375 0.78125 C 15.195312 0.78125 11.476562 -0.316406 9.21875 -2.515625 C 6.957031 -4.722656 5.828125 -8.316406 5.828125 -13.296875 Z M 5.828125 -28.703125 "/></g></g></g><g fill="#ffffff" fill-opacity="1"><g transform="translate(298.026094, 51.309925)"><g><path d="M 31.890625 -11.75 L 31.890625 -2.09375 C 30.648438 -1.320312 28.628906 -0.648438 25.828125 -0.078125 C 23.023438 0.492188 20.144531 0.78125 17.1875 0.78125 C 11.59375 0.78125 7.664062 -0.707031 5.40625 -3.6875 C 3.144531 -6.675781 2.015625 -11.851562 2.015625 -19.21875 C 2.015625 -26.582031 3.46875 -31.753906 6.375 -34.734375 C 9.28125 -37.710938 14.363281 -39.203125 21.625 -39.203125 C 23.382812 -39.203125 24.960938 -39.160156 26.359375 -39.078125 C 27.765625 -39.003906 29.273438 -38.867188 30.890625 -38.671875 L 30.890625 -28.3125 C 28.347656 -28.519531 26.503906 -28.632812 25.359375 -28.65625 C 24.222656 -28.6875 22.976562 -28.703125 21.625 -28.703125 C 18.050781 -28.703125 15.832031 -28.195312 14.96875 -27.1875 C 14.113281 -26.175781 13.6875 -23.519531 13.6875 -19.21875 C 13.6875 -15.320312 14.035156 -12.828125 14.734375 -11.734375 C 15.441406 -10.648438 17.066406 -10.109375 19.609375 -10.109375 C 21.679688 -10.109375 23.84375 -10.265625 26.09375 -10.578125 C 28.351562 -10.890625 30.285156 -11.28125 31.890625 -11.75 Z M 31.890625 -11.75 "/></g></g></g><g fill="#ffffff" fill-opacity="1"><g transform="translate(331.397436, 51.309925)"><g><path d="M 15.015625 0 L 3.34375 0 L 3.34375 -51.734375 L 15.015625 -51.734375 L 15.015625 -35.703125 C 16.929688 -36.796875 18.914062 -37.648438 20.96875 -38.265625 C 23.019531 -38.890625 24.976562 -39.203125 26.84375 -39.203125 C 31.195312 -39.203125 34.445312 -38.164062 36.59375 -36.09375 C 38.75 -34.019531 39.828125 -30.859375 39.828125 -26.609375 L 39.828125 0 L 28.15625 0 L 28.15625 -25.046875 C 28.15625 -26.347656 27.765625 -27.28125 26.984375 -27.84375 C 26.210938 -28.414062 24.972656 -28.703125 23.265625 -28.703125 C 21.960938 -28.703125 20.582031 -28.582031 19.125 -28.34375 C 17.675781 -28.113281 16.304688 -27.820312 15.015625 -27.46875 Z M 15.015625 0 "/></g></g></g></svg>