<svg version="1.1" id="Layer_1" xmlns="http://www.w3.org/2000/svg" xmlns:xlink="http://www.w3.org/1999/xlink" x="0px" y="0px"
	 width="100%" viewBox="0 0 400 600" enable-background="new 0 0 400 600" xml:space="preserve">
<path fill="#FFFFFF" opacity="1.000000" stroke="none" 
	d="
M171.000000,601.000000 
	C114.000015,601.000000 57.500027,601.000000 1.000030,601.000000 
	C1.000020,401.000061 1.000020,201.000122 1.000010,1.000138 
	C134.333237,1.000092 267.666473,1.000092 400.999817,1.000046 
	C400.999878,200.999863 400.999878,400.999725 400.999939,600.999756 
	C324.500000,601.000000 248.000000,601.000000 171.000000,601.000000 
M276.692291,297.371368 
	C276.054077,296.856506 275.402130,296.357635 274.779999,295.824036 
	C271.922150,293.373016 269.218109,290.767090 265.936707,295.558655 
	C265.404633,296.335632 262.048553,296.469940 261.600922,295.811554 
	C257.617310,289.951569 254.874954,293.970154 251.234100,296.979919 
	C247.374466,301.132019 247.073380,304.764252 250.349365,307.653473 
	C253.582535,310.504944 257.674500,309.519745 261.783478,304.889832 
	C263.861450,305.590454 265.939453,306.291046 268.230225,307.643372 
	C271.488983,309.906525 274.896729,310.166382 277.541077,307.077484 
	C280.022888,304.178467 280.282440,300.828949 276.692291,297.371368 
M208.798218,307.432678 
	C207.252853,291.035431 205.707489,274.638184 204.162109,258.240814 
	C200.229889,258.240814 196.626907,258.240814 192.642410,258.240814 
	C195.225174,283.611786 197.778610,308.694763 200.328308,333.740936 
	C205.883743,333.740936 210.963715,333.740936 216.298065,333.740936 
	C217.934021,318.545898 219.544601,303.586426 221.155182,288.626984 
	C221.556122,288.596771 221.957062,288.566589 222.358002,288.536407 
	C224.056091,303.592529 225.754181,318.648651 227.461380,333.785461 
	C232.514038,333.785461 237.271042,333.785461 242.359238,333.785461 
	C244.929703,308.510345 247.480896,283.424835 250.052460,258.139038 
	C246.397324,258.139038 243.273209,258.139038 239.738098,258.139038 
	C238.093216,275.701416 236.454224,293.200928 234.815216,310.700409 
	C234.425934,310.697723 234.036636,310.695007 233.647339,310.692322 
	C231.931778,293.230713 230.216232,275.769104 228.502930,258.330566 
	C223.877182,258.330566 219.647400,258.330566 215.381622,258.330566 
	C213.610565,276.320465 211.872238,293.978027 210.133911,311.635559 
	C209.853302,311.622498 209.572693,311.609467 209.292084,311.596405 
	C209.151413,310.499786 209.010727,309.403168 208.798218,307.432678 
M355.390900,261.796570 
	C355.390900,285.751801 355.390900,309.707062 355.390900,333.755341 
	C359.629700,333.755341 363.368683,333.755341 367.535248,333.755341 
	C367.535248,322.428833 367.535248,311.354980 367.535248,300.332397 
	C372.026794,300.332397 376.077209,300.332397 380.382721,300.332397 
	C380.382721,311.655365 380.382721,322.609772 380.382721,333.786133 
	C384.403809,333.786133 388.159912,333.786133 392.058960,333.786133 
	C392.058960,308.527771 392.058960,283.397827 392.058960,258.244995 
	C388.121338,258.244995 384.356384,258.244995 380.142029,258.244995 
	C380.142029,268.557770 380.142029,278.622375 380.142029,288.629761 
	C375.639587,288.629761 371.605286,288.629761 367.307922,288.629761 
	C367.307922,278.304901 367.307922,268.335449 367.307922,257.989929 
	C363.908905,257.989929 360.756409,257.789520 357.660950,258.121368 
	C356.816345,258.211945 356.143372,259.903015 355.390900,261.796570 
M103.434258,319.492493 
	C103.434258,313.743988 103.434258,307.995483 103.434258,302.319550 
	C113.126373,301.468933 114.977692,303.128937 115.044838,312.158813 
	C115.063400,314.655182 115.048714,317.151855 115.048813,319.648376 
	C115.049011,324.360352 115.048882,329.072327 115.048882,333.818085 
	C120.301460,333.818085 124.086380,333.818085 127.042923,333.818085 
	C127.042923,325.860626 127.038719,318.101746 127.044266,310.342834 
	C127.048630,304.235748 125.623756,298.819244 120.914497,296.304993 
	C122.904854,292.503662 125.783478,289.125610 126.363075,285.390808 
	C127.186035,280.087769 126.747604,274.466644 126.052925,269.084076 
	C125.323090,263.429016 121.532890,259.577789 115.882332,258.961121 
	C107.890015,258.088837 99.806557,258.051575 91.670334,257.652893 
	C91.670334,283.635040 91.670334,308.690399 91.670334,333.711182 
	C95.685120,333.711182 99.421188,333.711182 103.434204,333.711182 
	C103.434204,329.105011 103.434204,324.795837 103.434258,319.492493 
M342.440094,330.997559 
	C349.942108,323.922821 347.564484,314.742310 348.045410,305.961487 
	C344.170929,305.961487 340.598480,305.961487 336.645905,305.961487 
	C336.645905,310.203308 336.826782,314.186249 336.592346,318.144562 
	C336.379974,321.730225 334.527924,324.111725 330.570496,323.996765 
	C326.684662,323.883911 324.857025,321.663361 324.849274,317.911102 
	C324.819305,303.419434 324.811493,288.927643 324.845306,274.436005 
	C324.853729,270.832947 326.373016,268.278992 330.306152,268.037811 
	C334.568207,267.776428 336.308624,270.460754 336.607971,274.184845 
	C336.857391,277.287720 336.659088,280.426575 336.659088,283.549011 
	C340.725616,283.549011 344.164307,283.549011 347.825867,283.549011 
	C347.825867,279.527100 348.233307,275.681580 347.737579,271.956238 
	C346.821442,265.071411 343.574097,259.832672 336.288483,257.840576 
	C323.035370,254.216766 313.148926,261.194672 312.879517,274.906830 
	C312.611267,288.560913 312.794891,302.223938 312.781708,315.883026 
	C312.774933,322.887115 314.222198,329.419098 321.056915,332.821014 
	C328.067047,336.310333 335.197815,335.964600 342.440094,330.997559 
M147.731415,333.117767 
	C147.731415,323.184814 147.731415,313.251862 147.731415,302.835510 
	C150.711105,302.835510 153.185242,303.012299 155.626389,302.803436 
	C164.038559,302.083740 169.441055,297.929474 170.517456,289.984009 
	C171.356659,283.789398 171.338120,277.319214 170.579910,271.108307 
	C169.653580,263.520294 164.523178,258.886078 156.809418,258.285156 
	C149.923889,257.748810 142.963593,258.172424 135.981567,258.172424 
	C135.981567,283.575409 135.981567,308.661926 135.981567,333.830780 
	C139.829559,333.830780 143.475021,333.830780 147.731415,333.117767 
M9.391474,306.499756 
	C9.391474,315.600861 9.391474,324.701965 9.391474,333.674164 
	C13.747991,333.674164 17.476521,333.674164 21.428598,333.674164 
	C21.428598,323.378326 21.428598,313.418213 21.428598,302.863861 
	C24.125393,302.863861 26.597080,303.016510 29.044298,302.836517 
	C38.051041,302.174042 43.463436,297.734253 44.528538,288.868744 
	C45.233734,282.998993 44.917843,276.901062 44.245277,270.998016 
	C43.409733,263.664490 38.575626,259.156250 31.421047,258.462280 
	C24.243662,257.766144 16.946066,258.309326 9.391497,258.309326 
	C9.391497,274.242340 9.391497,289.871033 9.391474,306.499756 
M64.661446,288.944336 
	C64.266869,282.347809 63.872288,275.751282 63.462841,268.906250 
	C70.953278,268.906250 77.416779,268.906250 84.113617,268.906250 
	C84.113617,265.243988 84.113617,261.806824 84.113617,258.352417 
	C73.262817,258.352417 62.565857,258.352417 51.939785,258.352417 
	C51.939785,283.649689 51.939785,308.588898 51.939785,333.766296 
	C62.691273,333.766296 73.290733,333.766296 84.121017,333.766296 
	C84.121017,330.336639 84.121017,326.899902 84.121017,322.881287 
	C77.254753,322.881287 70.550537,322.881287 63.959641,322.881287 
	C63.959641,315.011017 63.959641,307.722656 63.959641,299.939606 
	C69.336845,299.939606 74.575333,299.939606 79.821274,299.939606 
	C79.821274,296.041992 79.821274,292.647461 79.821274,288.991028 
	C74.912468,288.991028 70.276237,288.991028 64.661446,288.944336 
M270.862427,262.523224 
	C270.862427,264.603760 270.862427,266.684296 270.862427,269.069397 
	C275.305786,269.069397 279.078461,269.069397 283.242737,269.069397 
	C283.242737,290.766205 283.242737,312.149414 283.242737,333.768677 
	C287.400909,333.768677 291.157318,333.768677 295.210083,333.768677 
	C295.210083,312.258636 295.210083,290.818329 295.210083,268.847839 
	C299.565216,268.847839 303.641632,268.847839 307.584167,268.847839 
	C307.584167,264.914917 307.584167,261.526978 307.584167,257.990173 
	C296.096893,257.990173 284.951721,258.130280 273.814056,257.902100 
	C270.607605,257.836365 270.753937,259.464630 270.862427,262.523224 
z"/>
<path fill="#060606" opacity="1.000000" stroke="none" 
	d="
M208.834137,307.869629 
	C209.010727,309.403168 209.151413,310.499786 209.292084,311.596405 
	C209.572693,311.609467 209.853302,311.622498 210.133911,311.635559 
	C211.872238,293.978027 213.610565,276.320465 215.381622,258.330566 
	C219.647400,258.330566 223.877182,258.330566 228.502930,258.330566 
	C230.216232,275.769104 231.931778,293.230713 233.647339,310.692322 
	C234.036636,310.695007 234.425934,310.697723 234.815216,310.700409 
	C236.454224,293.200928 238.093216,275.701416 239.738098,258.139038 
	C243.273209,258.139038 246.397324,258.139038 250.052460,258.139038 
	C247.480896,283.424835 244.929703,308.510345 242.359238,333.785461 
	C237.271042,333.785461 232.514038,333.785461 227.461380,333.785461 
	C225.754181,318.648651 224.056091,303.592529 222.358002,288.536407 
	C221.957062,288.566589 221.556122,288.596771 221.155182,288.626984 
	C219.544601,303.586426 217.934021,318.545898 216.298065,333.740936 
	C210.963715,333.740936 205.883743,333.740936 200.328308,333.740936 
	C197.778610,308.694763 195.225174,283.611786 192.642410,258.240814 
	C196.626907,258.240814 200.229889,258.240814 204.162109,258.240814 
	C205.707489,274.638184 207.252853,291.035431 208.834137,307.869629 
z"/>
<path fill="#070707" opacity="1.000000" stroke="none" 
	d="
M355.391296,261.328064 
	C356.143372,259.903015 356.816345,258.211945 357.660950,258.121368 
	C360.756409,257.789520 363.908905,257.989929 367.307922,257.989929 
	C367.307922,268.335449 367.307922,278.304901 367.307922,288.629761 
	C371.605286,288.629761 375.639587,288.629761 380.142029,288.629761 
	C380.142029,278.622375 380.142029,268.557770 380.142029,258.244995 
	C384.356384,258.244995 388.121338,258.244995 392.058960,258.244995 
	C392.058960,283.397827 392.058960,308.527771 392.058960,333.786133 
	C388.159912,333.786133 384.403809,333.786133 380.382721,333.786133 
	C380.382721,322.609772 380.382721,311.655365 380.382721,300.332397 
	C376.077209,300.332397 372.026794,300.332397 367.535248,300.332397 
	C367.535248,311.354980 367.535248,322.428833 367.535248,333.755341 
	C363.368683,333.755341 359.629700,333.755341 355.390900,333.755341 
	C355.390900,309.707062 355.390900,285.751801 355.391296,261.328064 
z"/>
<path fill="#060606" opacity="1.000000" stroke="none" 
	d="
M103.434235,319.989563 
	C103.434204,324.795837 103.434204,329.105011 103.434204,333.711182 
	C99.421188,333.711182 95.685120,333.711182 91.670334,333.711182 
	C91.670334,308.690399 91.670334,283.635040 91.670334,257.652893 
	C99.806557,258.051575 107.890015,258.088837 115.882332,258.961121 
	C121.532890,259.577789 125.323090,263.429016 126.052925,269.084076 
	C126.747604,274.466644 127.186035,280.087769 126.363075,285.390808 
	C125.783478,289.125610 122.904854,292.503662 120.914497,296.304993 
	C125.623756,298.819244 127.048630,304.235748 127.044266,310.342834 
	C127.038719,318.101746 127.042923,325.860626 127.042923,333.818085 
	C124.086380,333.818085 120.301460,333.818085 115.048882,333.818085 
	C115.048882,329.072327 115.049011,324.360352 115.048813,319.648376 
	C115.048714,317.151855 115.063400,314.655182 115.044838,312.158813 
	C114.977692,303.128937 113.126373,301.468933 103.434258,302.319550 
	C103.434258,307.995483 103.434258,313.743988 103.434235,319.989563 
M115.010765,276.828278 
	C114.369041,269.343842 111.868095,267.756836 103.707703,269.618927 
	C103.707703,276.683472 103.707703,283.734589 103.707703,290.752686 
	C113.114571,291.403778 114.972633,289.703796 115.011932,280.723755 
	C115.016296,279.726837 115.012306,278.729889 115.010765,276.828278 
z"/>
<path fill="#050505" opacity="1.000000" stroke="none" 
	d="
M342.160217,331.241486 
	C335.197815,335.964600 328.067047,336.310333 321.056915,332.821014 
	C314.222198,329.419098 312.774933,322.887115 312.781708,315.883026 
	C312.794891,302.223938 312.611267,288.560913 312.879517,274.906830 
	C313.148926,261.194672 323.035370,254.216766 336.288483,257.840576 
	C343.574097,259.832672 346.821442,265.071411 347.737579,271.956238 
	C348.233307,275.681580 347.825867,279.527100 347.825867,283.549011 
	C344.164307,283.549011 340.725616,283.549011 336.659088,283.549011 
	C336.659088,280.426575 336.857391,277.287720 336.607971,274.184845 
	C336.308624,270.460754 334.568207,267.776428 330.306152,268.037811 
	C326.373016,268.278992 324.853729,270.832947 324.845306,274.436005 
	C324.811493,288.927643 324.819305,303.419434 324.849274,317.911102 
	C324.857025,321.663361 326.684662,323.883911 330.570496,323.996765 
	C334.527924,324.111725 336.379974,321.730225 336.592346,318.144562 
	C336.826782,314.186249 336.645905,310.203308 336.645905,305.961487 
	C340.598480,305.961487 344.170929,305.961487 348.045410,305.961487 
	C347.564484,314.742310 349.942108,323.922821 342.160217,331.241486 
z"/>
<path fill="#050505" opacity="1.000000" stroke="none" 
	d="
M147.425949,333.474274 
	C143.475021,333.830780 139.829559,333.830780 135.981567,333.830780 
	C135.981567,308.661926 135.981567,283.575409 135.981567,258.172424 
	C142.963593,258.172424 149.923889,257.748810 156.809418,258.285156 
	C164.523178,258.886078 169.653580,263.520294 170.579910,271.108307 
	C171.338120,277.319214 171.356659,283.789398 170.517456,289.984009 
	C169.441055,297.929474 164.038559,302.083740 155.626389,302.803436 
	C153.185242,303.012299 150.711105,302.835510 147.731415,302.835510 
	C147.731415,313.251862 147.731415,323.184814 147.425949,333.474274 
M159.105118,286.045227 
	C159.123535,283.557434 159.161972,281.069611 159.156830,278.581848 
	C159.137589,269.269958 157.921524,268.249329 148.128052,269.360199 
	C148.128052,276.860046 148.128052,284.365112 148.128052,291.850311 
	C157.048264,292.195251 157.284027,292.085602 159.105118,286.045227 
z"/>
<path fill="#070707" opacity="1.000000" stroke="none" 
	d="
M9.391485,305.999756 
	C9.391497,289.871033 9.391497,274.242340 9.391497,258.309326 
	C16.946066,258.309326 24.243662,257.766144 31.421047,258.462280 
	C38.575626,259.156250 43.409733,263.664490 44.245277,270.998016 
	C44.917843,276.901062 45.233734,282.998993 44.528538,288.868744 
	C43.463436,297.734253 38.051041,302.174042 29.044298,302.836517 
	C26.597080,303.016510 24.125393,302.863861 21.428598,302.863861 
	C21.428598,313.418213 21.428598,323.378326 21.428598,333.674164 
	C17.476521,333.674164 13.747991,333.674164 9.391474,333.674164 
	C9.391474,324.701965 9.391474,315.600861 9.391485,305.999756 
M27.133457,291.991272 
	C31.365652,291.868073 32.940105,289.347961 32.987389,285.474457 
	C33.013813,283.309692 33.010822,281.144470 33.009480,278.979462 
	C33.003532,269.391266 31.403814,268.021637 21.617899,269.406799 
	C21.617899,276.808777 21.617899,284.237091 21.617899,292.009247 
	C23.315157,292.009247 24.790432,292.009247 27.133457,291.991272 
z"/>
<path fill="#030303" opacity="1.000000" stroke="none" 
	d="
M65.150726,288.967682 
	C70.276237,288.991028 74.912468,288.991028 79.821274,288.991028 
	C79.821274,292.647461 79.821274,296.041992 79.821274,299.939606 
	C74.575333,299.939606 69.336845,299.939606 63.959641,299.939606 
	C63.959641,307.722656 63.959641,315.011017 63.959641,322.881287 
	C70.550537,322.881287 77.254753,322.881287 84.121017,322.881287 
	C84.121017,326.899902 84.121017,330.336639 84.121017,333.766296 
	C73.290733,333.766296 62.691273,333.766296 51.939785,333.766296 
	C51.939785,308.588898 51.939785,283.649689 51.939785,258.352417 
	C62.565857,258.352417 73.262817,258.352417 84.113617,258.352417 
	C84.113617,261.806824 84.113617,265.243988 84.113617,268.906250 
	C77.416779,268.906250 70.953278,268.906250 63.462841,268.906250 
	C63.872288,275.751282 64.266869,282.347809 65.150726,288.967682 
z"/>
<path fill="#050505" opacity="1.000000" stroke="none" 
	d="
M270.862457,262.039856 
	C270.753937,259.464630 270.607605,257.836365 273.814056,257.902100 
	C284.951721,258.130280 296.096893,257.990173 307.584167,257.990173 
	C307.584167,261.526978 307.584167,264.914917 307.584167,268.847839 
	C303.641632,268.847839 299.565216,268.847839 295.210083,268.847839 
	C295.210083,290.818329 295.210083,312.258636 295.210083,333.768677 
	C291.157318,333.768677 287.400909,333.768677 283.242737,333.768677 
	C283.242737,312.149414 283.242737,290.766205 283.242737,269.069397 
	C279.078461,269.069397 275.305786,269.069397 270.862427,269.069397 
	C270.862427,266.684296 270.862427,264.603760 270.862457,262.039856 
z"/>
<path fill="#121212" opacity="1.000000" stroke="none" 
	d="
M251.911591,296.742188 
	C254.874954,293.970154 257.617310,289.951569 261.600922,295.811554 
	C262.048553,296.469940 265.404633,296.335632 265.936707,295.558655 
	C269.218109,290.767090 271.922150,293.373016 274.779999,295.824036 
	C275.402130,296.357635 276.054077,296.856506 276.675018,297.928589 
	C276.074127,298.672211 275.490540,298.858551 274.549774,299.028259 
	C272.589996,299.178223 269.869110,298.907959 269.600403,299.595703 
	C268.877258,301.446655 269.200836,303.706543 268.994568,306.059265 
	C268.592651,306.540161 268.305023,306.765900 268.017426,306.991638 
	C265.939453,306.291046 263.861450,305.590454 260.953186,304.889160 
	C259.781738,304.828735 259.440521,304.768951 259.133362,304.360413 
	C258.876038,298.524078 257.635651,297.584625 252.088409,298.213806 
	C251.982880,297.397186 251.947235,297.069672 251.911591,296.742188 
z"/>
<path fill="#2F2F2F" opacity="1.000000" stroke="none" 
	d="
M259.099335,304.709167 
	C259.440521,304.768951 259.781738,304.828735 260.635925,304.970886 
	C257.674500,309.519745 253.582535,310.504944 250.349365,307.653473 
	C247.073380,304.764252 247.374466,301.132019 251.572845,296.861053 
	C251.947235,297.069672 251.982880,297.397186 251.891342,298.469971 
	C249.651443,301.527069 249.344193,304.029633 251.859192,306.048309 
	C254.542328,308.201996 257.055573,307.182526 259.099335,304.709167 
z"/>
<path fill="#2F2F2F" opacity="1.000000" stroke="none" 
	d="
M268.123840,307.317505 
	C268.305023,306.765900 268.592651,306.540161 269.346069,306.218994 
	C272.008209,305.835632 274.204529,305.547668 276.400818,305.259705 
	C275.902863,303.188110 275.404907,301.116516 274.906921,299.044922 
	C275.490540,298.858551 276.074127,298.672211 276.833740,298.231567 
	C280.282440,300.828949 280.022888,304.178467 277.541077,307.077484 
	C274.896729,310.166382 271.488983,309.906525 268.123840,307.317505 
z"/>
<path fill="#F2F2F2" opacity="1.000000" stroke="none" 
	d="
M115.011475,277.280609 
	C115.012306,278.729889 115.016296,279.726837 115.011932,280.723755 
	C114.972633,289.703796 113.114571,291.403778 103.707703,290.752686 
	C103.707703,283.734589 103.707703,276.683472 103.707703,269.618927 
	C111.868095,267.756836 114.369041,269.343842 115.011475,277.280609 
z"/>
<path fill="#FDFDFD" opacity="1.000000" stroke="none" 
	d="
M159.075623,286.492767 
	C157.284027,292.085602 157.048264,292.195251 148.128052,291.850311 
	C148.128052,284.365112 148.128052,276.860046 148.128052,269.360199 
	C157.921524,268.249329 159.137589,269.269958 159.156830,278.581848 
	C159.161972,281.069611 159.123535,283.557434 159.075623,286.492767 
z"/>
<path fill="#F2F2F2" opacity="1.000000" stroke="none" 
	d="
M26.699581,292.000244 
	C24.790432,292.009247 23.315157,292.009247 21.617899,292.009247 
	C21.617899,284.237091 21.617899,276.808777 21.617899,269.406799 
	C31.403814,268.021637 33.003532,269.391266 33.009480,278.979462 
	C33.010822,281.144470 33.013813,283.309692 32.987389,285.474457 
	C32.940105,289.347961 31.365652,291.868073 26.699581,292.000244 
z"/>
<path fill="#EAEAEA" opacity="1.000000" stroke="none" 
	d="
M259.133362,304.360413 
	C257.055573,307.182526 254.542328,308.201996 251.859192,306.048309 
	C249.344193,304.029633 249.651443,301.527069 251.961212,298.959106 
	C257.635651,297.584625 258.876038,298.524078 259.133362,304.360413 
z"/>
<path fill="#F2F2F2" opacity="1.000000" stroke="none" 
	d="
M274.549805,299.028259 
	C275.404907,301.116516 275.902863,303.188110 276.400818,305.259705 
	C274.204529,305.547668 272.008209,305.835632 269.460388,305.963837 
	C269.200836,303.706543 268.877258,301.446655 269.600403,299.595703 
	C269.869110,298.907959 272.589996,299.178223 274.549805,299.028259 
z"/>
</svg>