<svg xmlns="http://www.w3.org/2000/svg" xmlns:xlink="http://www.w3.org/1999/xlink" width="500" zoomAndPan="magnify" viewBox="0 0 375 238.499993" height="318" preserveAspectRatio="xMidYMid meet" version="1.0"><defs><clipPath id="91ad841cf7"><path d="M 68 0 L 374.605469 0 L 374.605469 103 L 68 103 Z M 68 0 " clip-rule="nonzero"/></clipPath><clipPath id="b95312a69d"><path d="M 0.390625 136 L 307 136 L 307 238 L 0.390625 238 Z M 0.390625 136 " clip-rule="nonzero"/></clipPath></defs><g clip-path="url(#91ad841cf7)"><path fill="#ffffff" d="M 369.515625 72.996094 L 301.5 4.980469 C 298.3125 1.925781 294.0625 0.199219 289.679688 0.199219 C 280.378906 0.199219 272.675781 7.902344 272.675781 17.203125 C 272.675781 21.585938 274.402344 25.835938 277.457031 29.023438 L 316.445312 68.011719 L 85.4375 68.011719 C 76.074219 68.011719 68.433594 75.71875 68.433594 85.015625 C 68.433594 94.316406 76.074219 102.019531 85.4375 102.019531 L 357.492188 102.019531 C 366.792969 102.019531 374.496094 94.316406 374.496094 85.015625 C 374.496094 80.5 372.703125 76.183594 369.515625 72.996094 " fill-opacity="1" fill-rule="nonzero"/></g><g clip-path="url(#b95312a69d)"><path fill="#ffffff" d="M 289.480469 136.027344 L 17.425781 136.027344 C 8.058594 136.027344 0.421875 143.730469 0.421875 153.03125 C 0.421875 157.546875 2.214844 161.863281 5.402344 165.050781 L 73.417969 233.066406 C 76.605469 236.121094 80.855469 237.847656 85.238281 237.847656 C 94.539062 237.847656 102.242188 230.144531 102.242188 220.84375 C 102.242188 216.460938 100.515625 212.210938 97.460938 209.023438 L 58.472656 170.035156 L 289.480469 170.035156 C 298.777344 170.035156 306.484375 162.328125 306.484375 153.03125 C 306.484375 143.730469 298.777344 136.027344 289.480469 136.027344 " fill-opacity="1" fill-rule="nonzero"/></g></svg>